<svg width="15" height="16" viewBox="0 0 15 16" fill="none" xmlns="http://www.w3.org/2000/svg">
<path d="M5.63013 11.6537C4.5447 11.6537 3.66164 12.5367 3.66164 13.6222C3.66164 14.7076 4.5447 15.5907 5.63013 15.5907C6.71557 15.5907 7.59863 14.7076 7.59863 13.6222C7.59863 12.5367 6.71554 11.6537 5.63013 11.6537ZM5.63013 14.4096C5.19588 14.4096 4.84275 14.0564 4.84275 13.6222C4.84275 13.1879 5.19588 12.8348 5.63013 12.8348C6.06417 12.8348 6.41752 13.1879 6.41752 13.6222C6.41752 14.0564 6.06439 14.4096 5.63013 14.4096Z" fill="#4C5259"/>
<path d="M11.4568 11.6537C10.3714 11.6537 9.48834 12.5367 9.48834 13.6222C9.48834 14.7076 10.3714 15.5907 11.4568 15.5907C12.5423 15.5907 13.4253 14.7076 13.4253 13.6222C13.4253 12.5367 12.5423 11.6537 11.4568 11.6537ZM11.4568 14.4096C11.0226 14.4096 10.6694 14.0564 10.6694 13.6222C10.6694 13.1879 11.0226 12.8348 11.4568 12.8348C11.8911 12.8348 12.2442 13.1879 12.2442 13.6222C12.2442 14.0564 11.8911 14.4096 11.4568 14.4096Z" fill="#4C5259"/>
<path d="M14.8717 3.84509C14.7595 3.70414 14.5895 3.62207 14.4095 3.62207H4.06913L3.53232 0.9091C3.48528 0.671496 3.29788 0.486663 3.05949 0.442967L0.697306 0.00990231C0.375872 -0.049354 0.0687806 0.163463 0.00992017 0.484318C-0.0489403 0.805173 0.163451 1.11284 0.484336 1.1717L2.45164 1.53233L4.18469 10.2919C4.23941 10.5685 4.48213 10.7678 4.76401 10.7678H13.0316C13.3066 10.7678 13.545 10.5783 13.607 10.31L14.985 4.34548C15.0255 4.17009 14.9838 3.98583 14.8717 3.84509ZM12.5619 9.58677H5.24902L4.30278 4.80336H13.6668L12.5619 9.58677Z" fill="#4C5259"/>
</svg>
