<svg width="15" height="12" viewBox="0 0 15 12" fill="none" xmlns="http://www.w3.org/2000/svg">
<path d="M9.94312 6.07687L15 9.27375V2.745L9.94312 6.07687Z" fill="#4B538B"/>
<path d="M0 2.745V9.27375L5.05688 6.07687L0 2.745Z" fill="#4B538B"/>
<path d="M14.0625 0.84375H0.9375C0.469687 0.84375 0.0984375 1.1925 0.028125 1.64156L7.5 6.56438L14.9719 1.64156C14.9016 1.1925 14.5303 0.84375 14.0625 0.84375Z" fill="#4B538B"/>
<path d="M9.08437 6.64313L7.75781 7.51688C7.67906 7.56844 7.59 7.59375 7.5 7.59375C7.41 7.59375 7.32094 7.56844 7.24219 7.51688L5.91563 6.64219L0.03 10.365C0.102187 10.8103 0.471563 11.1562 0.9375 11.1562H14.0625C14.5284 11.1562 14.8978 10.8103 14.97 10.365L9.08437 6.64313Z" fill="#4B538B"/>
</svg>
