<svg width="60" height="60" viewBox="0 0 60 60" fill="none" xmlns="http://www.w3.org/2000/svg">
<path d="M10.6755 38.6459C4.789 38.6459 0 43.4349 0 49.3214C0 55.2097 4.789 60.0002 10.6755 60.0002C16.5638 60.0002 21.3543 55.2097 21.3543 49.3214C21.3543 43.4349 16.5638 38.6459 10.6755 38.6459ZM10.6755 57.6565C6.08135 57.6565 2.34364 53.9174 2.34364 49.3214C2.34364 44.7272 6.08123 40.9895 10.6755 40.9895C15.2715 40.9895 19.0106 44.7271 19.0106 49.3214C19.0106 53.9174 15.2715 57.6565 10.6755 57.6565Z" fill="#114380"/>
<path d="M14.9988 45.0015C14.541 44.544 13.7992 44.544 13.3414 45.0015L10.6771 47.6657L8.01284 45.0015C7.55511 44.544 6.81331 44.544 6.35545 45.0015C5.89783 45.4591 5.89783 46.2011 6.35545 46.6588L9.01972 49.3231L6.35545 51.9874C5.89783 52.445 5.89783 53.187 6.35545 53.6448C6.58432 53.8735 6.88421 53.988 7.18409 53.988C7.48409 53.988 7.78386 53.8735 8.01272 53.6448L10.677 50.9805L13.3413 53.6448C13.5701 53.8735 13.87 53.988 14.1699 53.988C14.4698 53.988 14.7697 53.8735 14.9985 53.6448C15.4562 53.1872 15.4562 52.4451 14.9985 51.9874L12.3343 49.3231L14.9985 46.6588C15.4564 46.2011 15.4564 45.4591 14.9988 45.0015Z" fill="#114380"/>
<path d="M44.2498 40.8554C46.78 37.9217 48.0242 34.2983 47.7567 30.6141C47.4768 26.7593 45.5648 23.1779 42.3728 20.5297C41.924 20.1571 41.2691 20.1717 40.8373 20.5637C40.7077 20.6812 40.5805 20.8003 40.4558 20.9209C39.6344 18.2032 37.9677 15.7237 35.6196 13.7764C35.1708 13.4041 34.5161 13.4186 34.0841 13.8104C33.9545 13.9279 33.8274 14.0471 33.7025 14.1677C32.8811 11.4499 31.2144 8.97039 28.8664 7.02319C28.4176 6.65089 27.763 6.66542 27.3309 7.0573C27.2013 7.17495 27.074 7.29402 26.9494 7.4146C26.1273 4.69596 24.4593 2.21626 22.1091 0.269536C21.6603 -0.102535 21.0059 -0.0878867 20.5742 0.304107C18.8341 1.88251 17.5366 3.73338 16.7087 5.71749C13.5243 2.83959 9.19738 1.40017 4.55334 1.73052C3.97162 1.77189 3.50884 2.23466 3.46747 2.81638C3.13712 7.46253 4.57713 11.7889 7.45585 14.9731C5.47057 15.8014 3.61912 17.0997 2.04083 18.841C1.64919 19.2731 1.63477 19.9273 2.00708 20.3762C3.95626 22.7264 6.43502 24.3933 9.15027 25.2135C9.03003 25.3379 8.91132 25.4648 8.79402 25.5942C8.40237 26.0263 8.38796 26.6805 8.76027 27.1294C10.7093 29.4796 13.1883 31.1466 15.9036 31.9668C15.7835 32.0911 15.6647 32.2179 15.5476 32.347C15.1556 32.7791 15.141 33.4335 15.5135 33.8825C17.4625 36.2328 19.9415 37.8998 22.6569 38.72C22.5366 38.8443 22.4179 38.9711 22.3007 39.1003C21.909 39.5324 21.8943 40.1867 22.2666 40.6356C24.9122 43.8268 28.4916 45.739 32.3453 46.0199C32.6752 46.0441 33.0045 46.056 33.333 46.056C36.6749 46.056 39.9203 44.8182 42.5929 42.5132L46.9679 46.8882C47.1967 47.1169 47.4966 47.2314 47.7965 47.2314C48.0965 47.2314 48.3963 47.1169 48.6251 46.8882C49.0828 46.4306 49.0828 45.6885 48.6251 45.2308L44.2498 40.8554ZM34.9071 16.2817C36.8864 18.193 38.162 20.5786 38.5593 23.1235C36.5477 25.9533 35.6434 29.275 35.9626 32.5682L32.4547 29.0603C30.5631 24.7487 31.5239 19.8542 34.9071 16.2817ZM28.1539 9.52844C30.1331 11.4397 31.4087 13.8252 31.806 16.3703C29.7944 19.2002 28.8901 22.5216 29.2094 25.8149L25.7014 22.3068C23.8078 17.9974 24.7688 13.1027 28.1539 9.52844ZM21.3978 2.7749C23.3786 4.68553 24.6553 7.07136 25.0528 9.61692C23.0403 12.447 22.1355 15.7681 22.4546 19.0603L18.9481 15.5538C17.0538 11.2428 18.0134 6.34807 21.3978 2.7749ZM5.76518 4.0281C5.79424 4.02787 5.82319 4.02787 5.85225 4.02787C9.80933 4.02787 13.4062 5.52518 15.9249 8.23281C15.5072 10.2289 15.539 12.2964 16.0484 14.312C14.0333 13.8036 11.9666 13.772 9.97176 14.1892C7.24304 11.6519 5.74303 8.02035 5.76518 4.0281ZM4.51209 19.6634C8.08269 16.2798 12.9775 15.3189 17.2911 17.2113L20.7985 20.7186C17.5045 20.399 14.1821 21.3036 11.3527 23.3158C8.81042 22.9211 6.4253 21.6456 4.51209 19.6634ZM11.2653 26.4166C14.8361 23.0329 19.7307 22.0721 24.0443 23.9645L27.5523 27.4725C24.2591 27.1533 20.9371 28.0578 18.1072 30.0694C15.5645 29.6748 13.1786 28.3989 11.2653 26.4166ZM18.0188 33.17C21.5913 29.7868 26.4861 28.826 30.7975 30.7175L34.3055 34.2256C31.012 33.9062 27.6902 34.8107 24.8604 36.8224C22.3177 36.428 19.9321 35.1523 18.0188 33.17ZM32.5158 43.6823C29.6292 43.4717 26.914 42.1468 24.7717 39.9237C28.3441 36.5398 33.2385 35.5791 37.5509 37.471L40.9301 40.8502C38.4923 42.8976 35.5211 43.9013 32.5158 43.6823ZM42.5872 39.1927L39.2078 35.8133C37.3163 31.5018 38.2774 26.6072 41.6604 23.0347C43.8845 25.1792 45.2093 27.896 45.419 30.7838C45.6372 33.788 44.6334 36.7564 42.5872 39.1927Z" fill="#114380"/>
<path d="M59.6564 56.262L56.059 52.6679C55.6012 52.2103 54.8591 52.2107 54.4017 52.6687C53.9443 53.1264 53.9447 53.8685 54.4025 54.326L57.9999 57.9201C58.2287 58.1488 58.5285 58.263 58.8281 58.263C59.1282 58.263 59.4283 58.1484 59.6571 57.9193C60.1146 57.4615 60.1142 56.7194 59.6564 56.262Z" fill="#114380"/>
<path d="M50.6783 48.9479C50.2207 49.4055 50.2207 50.1475 50.6783 50.6053L50.6816 50.6086C50.91 50.837 51.2088 50.951 51.5078 50.951C51.8078 50.951 52.108 50.8361 52.3372 50.6068C52.7948 50.1492 52.7933 49.4055 52.3355 48.9479C51.8778 48.4903 51.136 48.4903 50.6783 48.9479Z" fill="#114380"/>
</svg>
