<svg width="60" height="46" viewBox="0 0 60 46" fill="none" xmlns="http://www.w3.org/2000/svg">
<path d="M3.80859 34.7689C4.61637 34.7689 5.27344 35.4259 5.27344 36.2337C5.33473 37.7874 7.55543 37.7884 7.61719 36.2337C7.40801 31.1809 0.208242 31.1828 0 36.2337V41.5071C0.209766 46.561 7.4093 46.5571 7.61719 41.5071V40.0424C7.61719 39.3953 7.09242 38.8705 6.44531 38.8705H4.98047C3.42563 38.9325 3.4268 41.1529 4.98047 41.2143H5.27344V41.5071C5.1927 43.4509 2.42367 43.4494 2.34375 41.5071V36.2337C2.34375 35.4261 3.00082 34.7689 3.80859 34.7689Z" fill="#114380"/>
<path d="M25.4889 32.4251C23.3887 32.4251 21.6803 34.1336 21.6803 36.2337V41.5072C21.89 46.561 29.0896 46.5571 29.2975 41.5072V36.2337C29.2975 34.1337 27.589 32.4251 25.4889 32.4251ZM26.9537 41.5072C26.873 43.451 24.1039 43.4494 24.024 41.5072V36.2337C24.1048 34.2899 26.8738 34.2915 26.9537 36.2337V41.5072Z" fill="#114380"/>
<path d="M18.5037 32.4754C18.0095 32.3255 17.4755 32.5173 17.1891 32.947L14.6484 36.7579L12.1078 32.947C11.8214 32.5173 11.2872 32.3257 10.7932 32.4754C10.2989 32.6251 9.96082 33.0807 9.96082 33.597V44.1439C10.0228 45.6987 12.2432 45.6976 12.3046 44.1439V37.4675L13.6733 39.5205C14.1104 40.2094 15.1863 40.2093 15.6234 39.5205L16.9922 37.4675V44.1439C17.0542 45.6987 19.2745 45.6976 19.3359 44.1439V33.597C19.3361 33.0807 18.998 32.6251 18.5037 32.4754Z" fill="#114380"/>
<path d="M13.7697 30.0811C15.8698 30.0811 17.5783 28.3726 17.5783 26.2725V20.9991C17.3685 15.9453 10.169 15.9491 9.9611 20.9991V26.2725C9.9611 28.3726 11.6696 30.0811 13.7697 30.0811ZM12.3049 20.9991C12.3856 19.0553 15.1546 19.0568 15.2345 20.9991V26.2725C15.1538 28.2163 12.3848 28.2148 12.3049 26.2725V20.9991Z" fill="#114380"/>
<path d="M6.44531 17.1905C5.7982 17.1905 5.27344 17.7153 5.27344 18.3624V23.9451L2.22 17.8384C1.97695 17.3523 1.43191 17.0966 0.902578 17.2219C0.373594 17.3467 0 17.819 0 18.3624V28.9093C0.0619922 30.4641 2.28234 30.4629 2.34375 28.9093V23.3266L5.39719 29.4332C5.63918 29.9221 6.19629 30.1749 6.71461 30.0497C7.24359 29.9249 7.61719 29.4527 7.61719 28.9093V18.3624C7.61719 17.7153 7.09242 17.1905 6.44531 17.1905Z" fill="#114380"/>
<path d="M22.2659 28.9093V23.3266L25.3194 29.4332C25.5614 29.9221 26.1185 30.1749 26.6368 30.0497C27.1658 29.9249 27.5394 29.4527 27.5394 28.9093V18.3624C27.4774 16.8075 25.257 16.8087 25.1956 18.3624V23.9451L22.1422 17.8384C21.8992 17.3523 21.354 17.0966 20.8248 17.2219C20.2958 17.3467 19.9222 17.819 19.9222 18.3624V28.9093C19.9842 30.4641 22.2045 30.4629 22.2659 28.9093Z" fill="#114380"/>
<path d="M59.241 2.26187C59.1299 1.87187 58.8251 1.56706 58.4351 1.45597C53.622 0.0847434 48.5933 0.566388 44.2752 2.81184C42.9243 3.58399 43.9498 5.55369 45.3565 4.89123C48.9521 3.0216 53.1175 2.54922 57.1557 3.5411C58.5552 9.26247 56.9532 15.2497 52.8977 19.3052C49.1672 23.0359 43.8019 24.6902 38.5126 23.8419L41.8223 20.5322H45.8486C47.4035 20.4703 47.4023 18.2499 45.8486 18.1885H44.1659L48.2675 14.0869H52.2939C53.8487 14.0249 53.8475 11.8045 52.2939 11.7431H50.6113L53.168 9.18642C53.6256 8.7288 53.6256 7.98676 53.168 7.52902C52.7102 7.07152 51.9684 7.07152 51.5106 7.52902L48.954 10.0856V8.40325C48.892 6.84839 46.6716 6.84956 46.6102 8.40325V12.4294L42.5086 16.531V14.8486C42.4466 13.2938 40.2263 13.2949 40.1649 14.8486V18.8747L36.8528 22.1868C36.2667 18.5882 36.8259 14.9519 38.4841 11.7635C38.7827 11.1893 38.5594 10.4817 37.9851 10.1831C37.4108 9.88451 36.7033 10.108 36.4047 10.6821C34.2632 14.7999 33.7257 19.5637 34.8693 24.1704L30.9589 28.0808C30.5013 28.5384 30.5013 29.2805 30.9589 29.7382C31.4166 30.1958 32.1585 30.1958 32.6163 29.7382L36.527 25.8275C46.5809 28.4153 57.0895 22.3511 59.4718 12.1709C60.2472 8.94056 60.1675 5.5142 59.241 2.26187Z" fill="#114380"/>
<path d="M40.5642 8.14247C42.1191 8.08048 42.1179 5.86013 40.5642 5.79872C39.0094 5.86095 39.0106 8.0813 40.5642 8.14247Z" fill="#114380"/>
</svg>
