<svg width="40" height="36" viewBox="0 0 40 36" fill="none" xmlns="http://www.w3.org/2000/svg">
<path d="M20 35.5872C19.4305 35.5872 18.8815 35.3809 18.4537 35.0061C16.8378 33.5931 15.2798 32.2653 13.9053 31.0941L13.8983 31.088C9.86847 27.6538 6.38855 24.6881 3.96729 21.7667C1.26068 18.5007 0 15.4041 0 12.0212C0 8.73444 1.12701 5.70221 3.17322 3.48267C5.24384 1.23688 8.08502 0 11.1743 0C13.4833 0 15.5978 0.72998 17.4591 2.16949C18.3984 2.89612 19.2499 3.7854 20 4.82269C20.7504 3.7854 21.6016 2.89612 22.5412 2.16949C24.4025 0.72998 26.517 0 28.826 0C31.915 0 34.7565 1.23688 36.8271 3.48267C38.8733 5.70221 40 8.73444 40 12.0212C40 15.4041 38.7396 18.5007 36.033 21.7664C33.6118 24.6881 30.1321 27.6535 26.1029 31.0873C24.726 32.2604 23.1656 33.5904 21.546 35.0067C21.1185 35.3809 20.5692 35.5872 20 35.5872ZM11.1743 2.34314C8.74725 2.34314 6.51764 3.31177 4.89563 5.0708C3.24951 6.85638 2.34283 9.32465 2.34283 12.0212C2.34283 14.8663 3.40027 17.4109 5.77118 20.2716C8.06274 23.0368 11.4713 25.9415 15.4178 29.3048L15.4251 29.3109C16.8048 30.4868 18.3688 31.8198 19.9966 33.2431C21.6342 31.817 23.2007 30.4819 24.5831 29.3042C28.5294 25.9409 31.9376 23.0368 34.2291 20.2716C36.5997 17.4109 37.6572 14.8663 37.6572 12.0212C37.6572 9.32465 36.7505 6.85638 35.1044 5.0708C33.4827 3.31177 31.2527 2.34314 28.826 2.34314C27.048 2.34314 25.4156 2.90833 23.9743 4.02283C22.6898 5.01648 21.795 6.27258 21.2704 7.15149C21.0007 7.60345 20.5258 7.87323 20 7.87323C19.4742 7.87323 18.9993 7.60345 18.7296 7.15149C18.2053 6.27258 17.3105 5.01648 16.0257 4.02283C14.5844 2.90833 12.952 2.34314 11.1743 2.34314Z" fill="#114380"/>
</svg>
