<svg width="15" height="15" viewBox="0 0 15 15" fill="none" xmlns="http://www.w3.org/2000/svg">
<path d="M12.8034 9.69668C11.9866 8.87982 11.0143 8.27511 9.95341 7.90904C11.0896 7.12649 11.8361 5.81684 11.8361 4.33594C11.8361 1.94511 9.89095 0 7.50012 0C5.10929 0 3.16418 1.94511 3.16418 4.33594C3.16418 5.81684 3.91064 7.12649 5.04686 7.90904C3.98602 8.27511 3.01372 8.87982 2.19683 9.69668C0.780269 11.1133 0.00012207 12.9967 0.00012207 15H1.172C1.172 11.5107 4.01078 8.67188 7.50012 8.67188C10.9895 8.67188 13.8282 11.5107 13.8282 15H15.0001C15.0001 12.9967 14.22 11.1133 12.8034 9.69668ZM7.50012 7.5C5.75546 7.5 4.33606 6.08062 4.33606 4.33594C4.33606 2.59125 5.75546 1.17188 7.50012 1.17188C9.24478 1.17188 10.6642 2.59125 10.6642 4.33594C10.6642 6.08062 9.24478 7.5 7.50012 7.5Z" fill="#4C5259"/>
</svg>
