<svg width="15" height="16" viewBox="0 0 15 16" fill="none" xmlns="http://www.w3.org/2000/svg">
<path d="M14.6067 11.5158L12.509 9.41808C11.7598 8.6689 10.4862 8.9686 10.1865 9.94251C9.96175 10.6168 9.21257 10.9914 8.53831 10.8415C7.03996 10.4669 5.01718 8.51907 4.64259 6.94579C4.41783 6.2715 4.86734 5.52233 5.5416 5.2976C6.51553 4.99793 6.81521 3.72433 6.06603 2.97515L3.96833 0.877449C3.36898 0.353025 2.46997 0.353025 1.94555 0.877449L0.522108 2.30089C-0.901331 3.79924 0.671943 7.76989 4.19308 11.291C7.71422 14.8122 11.6849 16.4604 13.1832 14.962L14.6067 13.5386C15.1311 12.9392 15.1311 12.0402 14.6067 11.5158Z" fill="#4B538B"/>
</svg>
