<svg width="40" height="40" viewBox="0 0 40 40" fill="none" xmlns="http://www.w3.org/2000/svg">
<path d="M38.4375 18.4375H21.5625V1.5625C21.5625 0.699531 20.863 0 20 0C19.137 0 18.4375 0.699531 18.4375 1.5625V18.4375H1.5625C0.699531 18.4375 0 19.137 0 20C0 20.863 0.699531 21.5625 1.5625 21.5625H18.4375V38.4375C18.4375 39.3005 19.137 40 20 40C20.863 40 21.5625 39.3005 21.5625 38.4375V21.5625H38.4375C39.3005 21.5625 40 20.863 40 20C40 19.137 39.3005 18.4375 38.4375 18.4375Z" fill="#25B14A"/>
</svg>
