<svg width="16" height="12" viewBox="0 0 16 12" fill="none" xmlns="http://www.w3.org/2000/svg">
<path d="M15.4747 1.30726L10.9255 5.82715L15.4747 10.347C15.5569 10.1752 15.6068 9.98514 15.6068 9.78223V1.87207C15.6068 1.66913 15.5569 1.47914 15.4747 1.30726Z" fill="white"/>
<path d="M14.2885 0.553711H1.92517C1.72223 0.553711 1.53224 0.603604 1.36036 0.68584L7.1747 6.47089C7.6888 6.98499 8.52482 6.98499 9.03892 6.47089L14.8533 0.68584C14.6814 0.603604 14.4914 0.553711 14.2885 0.553711Z" fill="white"/>
<path d="M0.73894 1.30726C0.656704 1.47914 0.606812 1.66913 0.606812 1.87207V9.78223C0.606812 9.98517 0.656704 10.1752 0.73894 10.347L5.28813 5.82715L0.73894 1.30726Z" fill="white"/>
<path d="M10.3041 6.44856L9.66034 7.0923C8.80373 7.94892 7.40987 7.94892 6.55326 7.0923L5.90955 6.44856L1.36036 10.9685C1.53224 11.0507 1.72223 11.1006 1.92517 11.1006H14.2885C14.4914 11.1006 14.6814 11.0507 14.8533 10.9685L10.3041 6.44856Z" fill="white"/>
</svg>
