<svg width="22" height="18" viewBox="0 0 22 18" fill="none" xmlns="http://www.w3.org/2000/svg">
<path d="M6.74401 13.8598C5.86248 13.8148 5.87908 12.5749 6.74397 12.5318C9.19394 12.5403 15.6559 12.5341 18.1838 12.5359C18.8752 12.5359 19.4667 12.0654 19.6222 11.3917L21.0576 5.17601C21.1398 4.82012 21.0569 4.45177 20.8301 4.16547C20.6033 3.87917 20.2637 3.71266 19.8985 3.71266C18.8816 3.71266 10.2494 3.67358 5.82806 3.65596L5.1272 1.05545C4.95895 0.434002 4.39183 0 3.74803 0H1.50282C1.17619 0 0.911377 0.26481 0.911377 0.591445C0.911377 0.918081 1.17619 1.18289 1.50282 1.18289H3.74803C3.85886 1.18289 3.95645 1.25761 3.98528 1.36395L6.67694 11.3505C6.20367 11.3677 5.76284 11.5602 5.42856 11.8994C5.07732 12.2558 4.88869 12.7277 4.8974 13.228C4.91483 14.2286 5.74321 15.0427 6.74401 15.0427H7.60642C7.47823 15.3117 7.40627 15.6125 7.40627 15.9299C7.40627 17.0714 8.33492 18 9.47641 18C10.6179 18 11.5465 17.0714 11.5465 15.9299C11.5465 15.6125 11.4745 15.3117 11.3464 15.0427H15.081C14.9529 15.3116 14.881 15.6123 14.881 15.9295C14.881 17.071 15.8096 17.9997 16.9511 17.9997C18.0926 17.9997 19.0213 17.071 19.0213 15.9295C19.0213 15.6 18.9434 15.2883 18.8058 15.0114C19.0399 14.9326 19.2086 14.7118 19.2086 14.4513C19.2086 14.1246 18.9438 13.8598 18.6172 13.8598H6.74401ZM10.3636 15.9299C10.3636 16.4191 9.96561 16.8171 9.47637 16.8171C8.98712 16.8171 8.58912 16.4191 8.58912 15.9299C8.58912 15.4409 8.98673 15.0431 9.47562 15.0427H9.47712C9.96601 15.0431 10.3636 15.4409 10.3636 15.9299ZM16.9511 16.8168C16.4619 16.8168 16.0639 16.4188 16.0639 15.9296C16.0639 15.4452 16.4542 15.0505 16.9367 15.0427H16.9656C17.4482 15.0505 17.8385 15.4452 17.8385 15.9296C17.8384 16.4188 17.4404 16.8168 16.9511 16.8168Z" fill="#25B14A"/>
<path d="M19.8154 4.99774C19.8162 4.99441 19.8166 4.99232 19.8132 4.98796C19.8097 4.98362 19.8075 4.98358 19.8041 4.9835L17.5113 4.97427L16.3188 4.9695L13.7156 4.95901L12.5326 4.95424L9.91821 4.94371L8.72425 4.93886L6.05762 4.9281L6.78234 7.61697L7.10116 8.79986L7.74947 11.2052C7.78696 11.3437 7.91397 11.441 8.05812 11.441H8.05997H9.58937H10.7827H12.5327H13.7156H15.4647H16.6579H18.0941C18.2315 11.441 18.3491 11.3475 18.38 11.2136L18.9374 8.79986L19.2106 7.61697L19.8154 4.99774Z" fill="white"/>
<path d="M6.30615 7.40442L19.816 7.45673" stroke="#25B14A"/>
</svg>
