<svg width="17" height="15" viewBox="0 0 17 15" fill="none" xmlns="http://www.w3.org/2000/svg">
<path d="M15.4941 5.28193L10.7852 4.59758L8.68026 0.330127C8.62277 0.213287 8.52818 0.118702 8.41134 0.0612089C8.11831 -0.0834504 7.76223 0.037099 7.61572 0.330127L5.51074 4.59758L0.801891 5.28193C0.672068 5.30047 0.553373 5.36167 0.462498 5.45441C0.352634 5.56733 0.292094 5.71924 0.294181 5.87678C0.296267 6.03431 0.360809 6.18457 0.473625 6.29454L3.88054 9.61614L3.07564 14.3064C3.05676 14.4156 3.06884 14.5278 3.11049 14.6304C3.15214 14.733 3.22171 14.8218 3.3113 14.8869C3.40089 14.952 3.50692 14.9906 3.61737 14.9985C3.72782 15.0064 3.83826 14.9831 3.93618 14.9314L8.14799 12.717L12.3598 14.9314C12.4748 14.9926 12.6083 15.013 12.7363 14.9908C13.059 14.9352 13.276 14.6291 13.2203 14.3064L12.4154 9.61614L15.8224 6.29454C15.9151 6.20367 15.9763 6.08497 15.9948 5.95515C16.0449 5.63059 15.8186 5.33015 15.4941 5.28193Z" fill="#FF8C00"/>
</svg>
