<svg width="17" height="15" viewBox="0 0 17 15" fill="none" xmlns="http://www.w3.org/2000/svg">
<path d="M11.0297 5.05456L10.9134 4.81876L8.80838 0.551314L8.80817 0.550879C8.7994 0.533067 8.78494 0.518604 8.76713 0.509838L8.76655 0.509552C8.72198 0.487549 8.66424 0.505121 8.63982 0.55304C8.6397 0.553271 8.63958 0.553502 8.63947 0.553734L6.53569 4.81876L6.41938 5.05456L6.15919 5.09238L1.45034 5.77673L1.44914 5.7769C1.43048 5.77957 1.4121 5.78837 1.39679 5.80371C1.37973 5.82158 1.37035 5.84543 1.37067 5.87016C1.37101 5.89517 1.38126 5.91904 1.39917 5.9365L1.39921 5.93653L4.80612 9.25813L4.99433 9.44164L4.94987 9.70071L4.14497 14.391L4.14486 14.3917C4.14191 14.4087 4.1438 14.4262 4.1503 14.4423C4.15681 14.4583 4.16767 14.4722 4.18167 14.4823C4.19566 14.4925 4.21222 14.4985 4.22947 14.4998C4.24672 14.501 4.26397 14.4974 4.27926 14.4893L4.28003 14.4889L8.49185 12.2745L8.72453 12.1522L8.95721 12.2745L13.169 14.4889L13.1713 14.4901C13.186 14.4979 13.2064 14.5018 13.2272 14.4982L13.2279 14.4981C13.2797 14.4891 13.3127 14.4407 13.3041 14.3914L13.3041 14.391L12.4992 9.70071L12.4547 9.44164L12.6429 9.25813L16.0489 5.93744C16.049 5.93735 16.0491 5.93727 16.0492 5.93719L11.0297 5.05456ZM11.0297 5.05456L11.2899 5.09238M11.0297 5.05456L11.2899 5.09238M11.2899 5.09238L15.9971 5.7765L11.2899 5.09238Z" stroke="#FF8C00"/>
</svg>
