<svg width="40" height="40" viewBox="0 0 40 40" fill="none" xmlns="http://www.w3.org/2000/svg">
<path d="M39.9894 22.0923C39.9894 21.8445 39.8561 21.616 39.6404 21.4941C39.6397 21.4937 39.6388 21.4932 39.6382 21.4928C39.5983 21.4665 39.556 21.4437 39.5114 21.4249L30.3853 17.3465V5.07312C30.3853 5.06719 30.3852 5.06133 30.385 5.05547C30.385 5.05352 30.385 5.05164 30.3849 5.04969C30.3848 5.04578 30.3846 5.0418 30.3844 5.03789C30.3843 5.03555 30.3843 5.0332 30.3841 5.03086C30.3839 5.02586 30.3836 5.02078 30.3832 5.01578C30.3829 5.01227 30.3826 5.00883 30.3823 5.00539C30.3821 5.00359 30.382 5.00172 30.3818 4.99992C30.3672 4.84352 30.3065 4.70047 30.2135 4.58453C30.2121 4.58289 30.2108 4.58125 30.2095 4.57961C30.2076 4.57734 30.2057 4.57508 30.2039 4.57281C30.2019 4.57047 30.2 4.56812 30.1979 4.56578C30.1964 4.56406 30.195 4.56234 30.1936 4.5607C30.19 4.55664 30.1864 4.55258 30.1828 4.54859C30.1821 4.54781 30.1814 4.54703 30.1806 4.54625C30.1773 4.54266 30.1739 4.53906 30.1706 4.53555C30.1698 4.53469 30.169 4.53391 30.1682 4.53305C30.1644 4.52914 30.1607 4.52523 30.1568 4.52141C30.1571 4.52164 30.1566 4.52117 30.1568 4.52141C30.1525 4.51711 30.1475 4.51211 30.143 4.50789C30.1431 4.50805 30.1429 4.50773 30.143 4.50789C30.1389 4.50406 30.1345 4.49984 30.1304 4.49609C30.1296 4.49539 30.1288 4.49469 30.128 4.49398C30.1243 4.49062 30.1204 4.48719 30.1166 4.48391C30.116 4.48336 30.1154 4.48273 30.1147 4.48219C30.1104 4.47852 30.1061 4.47484 30.1017 4.47125C30.1004 4.47023 30.0992 4.46922 30.098 4.46828C30.0951 4.46594 30.0921 4.46352 30.0892 4.46117C30.0872 4.45961 30.0852 4.45805 30.0832 4.45648C30.081 4.45477 30.0788 4.45305 30.0765 4.45133C30.0245 4.41172 29.9674 4.37852 29.9062 4.35281L20.3189 0.0679687C20.1161 -0.0226562 19.8842 -0.0226562 19.6814 0.0679687L10.0937 4.35266C10.0326 4.37836 9.97551 4.41156 9.92348 4.45117C9.92121 4.45289 9.91895 4.45461 9.91676 4.45633C9.91473 4.45789 9.91277 4.45945 9.91082 4.46102C9.90785 4.46336 9.90496 4.4657 9.90199 4.46812C9.90074 4.46914 9.89949 4.47008 9.89832 4.47109C9.89394 4.47469 9.88965 4.47836 9.88535 4.48203C9.88473 4.48258 9.8841 4.48312 9.8834 4.48375C9.87957 4.48703 9.87574 4.49047 9.87199 4.49383C9.87121 4.49453 9.87043 4.49523 9.86965 4.49594C9.86551 4.49969 9.86145 4.50352 9.85738 4.50734C9.85754 4.50719 9.85723 4.5075 9.85738 4.50734C9.85293 4.51156 9.84816 4.51625 9.84387 4.52055C9.8441 4.52031 9.84363 4.52078 9.84387 4.52055C9.84004 4.52437 9.83559 4.52898 9.83184 4.53289C9.83105 4.53375 9.8302 4.53453 9.82941 4.53539C9.82605 4.53891 9.8227 4.5425 9.81941 4.54609C9.81871 4.54687 9.81793 4.54766 9.81723 4.54844C9.81363 4.55242 9.81004 4.55648 9.80645 4.56055C9.80496 4.56219 9.80355 4.56391 9.80207 4.56562C9.80012 4.56797 9.79809 4.57031 9.79613 4.57266C9.79426 4.57492 9.79238 4.57719 9.79051 4.57945C9.78918 4.58109 9.78785 4.58273 9.7866 4.58437C9.69348 4.70031 9.63277 4.84328 9.61824 4.99977C9.61809 5.00156 9.61793 5.00344 9.61777 5.00523C9.61746 5.00875 9.61715 5.01219 9.61691 5.01562C9.61652 5.02062 9.61621 5.0257 9.61598 5.0307C9.61582 5.03305 9.61574 5.03539 9.61566 5.03773C9.61551 5.04164 9.61535 5.04563 9.6152 5.04953C9.61512 5.05148 9.61512 5.05336 9.61504 5.05531C9.61488 5.06117 9.6148 5.06711 9.6148 5.07297V17.3463L0.488633 21.4248C0.488867 21.4247 0.488398 21.4249 0.488633 21.4248C0.200039 21.5459 0.0107422 21.8283 0.0107422 22.1412V34.9246C0.0107422 35.2327 0.191836 35.5121 0.473242 35.6378C0.473242 35.6378 10.0784 39.9303 10.0789 39.9305L10.0835 39.9326C10.2813 40.022 10.508 40.0224 10.7061 39.9337L10.7148 39.9298L20.0001 35.7803L29.2854 39.9299C29.2855 39.93 29.2975 39.9345 29.3169 39.9419C29.5126 40.0163 29.7303 40.0121 29.9228 39.9299L39.5269 35.6378C39.8082 35.5121 39.9894 35.2327 39.9894 34.9246V22.0923ZM29.6042 25.5813L21.9149 22.1449L29.6042 18.7086L37.2935 22.1449L29.6042 25.5813ZM20.0001 12.4657C20.4315 12.4657 20.7813 12.1159 20.7813 11.6845V9.8718L28.8229 6.27805V17.3463L20.7813 20.9402V18.7477C20.7813 18.3162 20.4315 17.9664 20.0001 17.9664C19.5687 17.9664 19.2189 18.3162 19.2189 18.7477V20.9402L11.1773 17.3463V6.27805L19.2189 9.8718V11.6845C19.2189 12.116 19.5687 12.4657 20.0001 12.4657ZM20.0001 1.63687L27.6895 5.07328L20.0001 8.50953L12.3107 5.0732L20.0001 1.63687ZM10.3961 18.7086L18.0854 22.1449L10.3961 25.5813L2.70676 22.1449L10.3961 18.7086ZM1.57316 23.3498L9.63598 26.953C9.62215 27.0112 9.6148 27.0719 9.6148 27.1343V38.0119L1.57316 34.418V23.3498ZM11.1561 26.953L19.2189 23.3498V34.4181L11.1772 38.012V27.1342C11.1772 27.0719 11.1699 27.0112 11.1561 26.953ZM20.7813 23.3498L28.8441 26.953C28.8303 27.0112 28.8229 27.0719 28.8229 27.1343V38.0119L20.7813 34.418V23.3498ZM30.3854 38.0119V27.1342C30.3854 27.0718 30.378 27.0111 30.3642 26.953L38.427 23.3497V34.418L30.3854 38.0119Z" fill="#114380"/>
<path d="M20.0002 15.9828C19.6696 15.9828 19.3665 15.766 19.2604 15.4526C19.1604 15.1573 19.2502 14.82 19.4851 14.6144C19.7411 14.3903 20.1234 14.3599 20.4124 14.5386C20.6894 14.71 20.8327 15.0489 20.763 15.3671C20.6853 15.7218 20.364 15.9828 20.0002 15.9828Z" fill="#114380"/>
</svg>
