<svg width="16" height="16" viewBox="0 0 16 16" fill="none" xmlns="http://www.w3.org/2000/svg">
<path d="M12.0109 10.2499C11.5209 9.76613 10.9091 9.76613 10.4221 10.2499C10.0507 10.6183 9.67921 10.9866 9.314 11.3611C9.21411 11.4641 9.12983 11.486 9.0081 11.4173C8.76775 11.2862 8.51179 11.1801 8.2808 11.0365C7.20391 10.3592 6.30182 9.48833 5.50273 8.50822C5.10631 8.02129 4.75358 7.50003 4.50699 6.91321C4.45705 6.7946 4.46641 6.71657 4.56318 6.6198C4.93463 6.26085 5.29671 5.89253 5.66192 5.52421C6.17071 5.01231 6.17071 4.413 5.6588 3.89798C5.36851 3.60457 5.07821 3.31741 4.78792 3.024C4.48826 2.72435 4.19172 2.42158 3.88895 2.12505C3.39888 1.64748 2.78708 1.64748 2.30014 2.12817C1.92556 2.49649 1.5666 2.87418 1.18578 3.23625C0.833061 3.57024 0.65514 3.97914 0.617682 4.4567C0.558375 5.23392 0.748783 5.96744 1.01723 6.68223C1.5666 8.16175 2.40314 9.47585 3.41761 10.6807C4.78792 12.31 6.42355 13.5992 8.33699 14.5293C9.19851 14.9476 10.0912 15.2691 11.062 15.3221C11.73 15.3596 12.3106 15.1911 12.7757 14.6698C13.0941 14.3139 13.453 13.9893 13.7901 13.6491C14.2896 13.1434 14.2927 12.5317 13.7964 12.0322C13.2033 11.4361 12.6071 10.843 12.0109 10.2499Z" fill="white"/>
<path d="M11.4147 7.76222L12.5665 7.56557C12.3855 6.50743 11.8861 5.54918 11.1276 4.78757C10.3253 3.98538 9.31088 3.47972 8.1934 3.32365L8.03109 4.48167C8.89573 4.60341 9.68233 4.99358 10.3035 5.61473C10.8903 6.20154 11.2743 6.94442 11.4147 7.76222Z" fill="white"/>
<path d="M13.2158 2.75556C11.8861 1.42587 10.2036 0.586221 8.34635 0.327148L8.18404 1.48517C9.78846 1.70991 11.243 2.43719 12.3917 3.58272C13.4811 4.67208 14.1959 6.0486 14.455 7.56245L15.6068 7.36581C15.304 5.61161 14.4769 4.01971 13.2158 2.75556Z" fill="white"/>
</svg>
