<svg width="60" height="60" viewBox="0 0 60 60" fill="none" xmlns="http://www.w3.org/2000/svg">
<path d="M54.7235 13.0027C54.3566 12.4697 53.6269 12.3352 53.0937 12.7023C52.5607 13.0693 52.4263 13.7991 52.7934 14.3321C55.9746 18.9511 57.6562 24.3689 57.6562 30C57.6562 37.3873 54.7795 44.3324 49.5559 49.5559C44.3324 54.7795 37.3873 57.6562 30 57.6562C22.6127 57.6562 15.6676 54.7795 10.4441 49.5559C5.22047 44.3324 2.34375 37.3873 2.34375 30C2.34375 22.6127 5.22047 15.6676 10.4441 10.4441C15.6676 5.22047 22.6127 2.34375 30 2.34375C35.631 2.34375 41.0488 4.02539 45.668 7.2068C46.2008 7.57371 46.9304 7.43941 47.2977 6.90645C47.6648 6.37348 47.5303 5.64375 46.9973 5.2766C41.9855 1.82461 36.1078 0 30 0C21.9867 0 14.4531 3.12047 8.78672 8.78684C3.12059 14.4531 0 21.9867 0 30C0 38.0133 3.12059 45.5469 8.78672 51.2132C14.4531 56.8795 21.9867 60 30 60C38.0133 60 45.5469 56.8795 51.2133 51.2132C56.8794 45.5469 60 38.0133 60 30C60 23.892 58.1755 18.0144 54.7235 13.0027Z" fill="#114380"/>
<path d="M16.138 29.2073C12.1643 31.5015 9.50252 35.4242 8.83526 39.9696C8.62643 41.3917 9.4137 42.7551 10.7496 43.2853C12.5408 43.9962 14.4126 44.3484 16.2754 44.3484C18.8534 44.3484 21.4146 43.6738 23.7214 42.3419C26.5852 40.6885 28.7569 38.1933 29.9999 35.2552C31.2429 38.1933 33.4146 40.6885 36.2785 42.3419C38.5855 43.6739 41.1461 44.3484 43.7244 44.3484C45.5871 44.3483 47.4592 43.9962 49.2502 43.2853C50.5861 42.7551 51.3734 41.3915 51.1646 39.9696C50.4973 35.4241 47.8355 31.5014 43.8618 29.2073C40.998 27.5539 37.7512 26.9208 34.5852 27.3133C36.5083 24.7679 37.5832 21.6395 37.5832 18.3326C37.5832 13.7442 35.5169 9.47763 31.9142 6.62693C30.7869 5.73513 29.2126 5.73513 28.0854 6.62693C24.4827 9.47763 22.4164 13.7441 22.4164 18.3326C22.4164 21.6395 23.4914 24.7679 25.4144 27.3133C22.2487 26.9206 19.0019 27.5538 16.138 29.2073ZM22.5495 40.3124C19.2001 42.2461 15.2145 42.5359 11.6141 41.1069C11.2982 40.9815 11.1047 40.6465 11.154 40.3101C11.7168 36.4779 13.9605 33.171 17.3099 31.2371C19.2621 30.11 21.4256 29.5445 23.5937 29.5445C24.8633 29.5445 26.1345 29.7396 27.3658 30.1284L21.8285 33.3254C21.268 33.649 21.076 34.3657 21.3996 34.9262C21.6168 35.3021 22.0105 35.5122 22.4156 35.5122C22.6144 35.5122 22.816 35.4616 23.0004 35.3551L28.5389 32.1574C27.7841 35.5708 25.6455 38.5249 22.5495 40.3124ZM42.6899 31.237C46.0394 33.1708 48.2831 36.4778 48.8458 40.31C48.8951 40.6463 48.7017 40.9814 48.3857 41.1068C44.7853 42.5358 40.7997 42.246 37.4503 40.3122C34.3544 38.5248 32.2157 35.5708 31.4609 32.1572L37.1369 35.4342C37.3214 35.5407 37.5229 35.5913 37.7216 35.5913C38.1266 35.5913 38.5206 35.3812 38.7376 35.0053C39.0613 34.4448 38.8692 33.7281 38.3087 33.4045L32.6328 30.1275C35.9666 29.0744 39.5942 29.4497 42.6899 31.237ZM29.5398 8.4649C29.6732 8.35943 29.8364 8.30669 29.9999 8.30669C30.1634 8.30669 30.3266 8.35943 30.46 8.4649C33.4975 10.8683 35.2396 14.4649 35.2396 18.3324C35.2396 21.9072 33.7506 25.2364 31.1718 27.5969V19.9508C31.1718 19.3036 30.647 18.7789 29.9999 18.7789C29.3528 18.7789 28.828 19.3036 28.828 19.9508V27.5969C26.2492 25.2364 24.7602 21.9072 24.7602 18.3324C24.7602 14.4649 26.5023 10.8683 29.5398 8.4649Z" fill="#114380"/>
<path d="M50.3882 10.7826C51.0354 10.7826 51.56 10.258 51.56 9.61076C51.56 8.96355 51.0354 8.43889 50.3882 8.43889C49.741 8.43889 49.2163 8.96355 49.2163 9.61076C49.2163 10.258 49.741 10.7826 50.3882 10.7826Z" fill="#114380"/>
</svg>
