<svg width="16" height="16" viewBox="0 0 16 16" fill="none" xmlns="http://www.w3.org/2000/svg">
<path d="M15.3796 15.8272L15.3833 15.8266V10.3253C15.3833 7.63407 14.8039 5.56094 11.6577 5.56094C10.1452 5.56094 9.13018 6.39094 8.71581 7.17782H8.67206V5.81219H5.68893V15.8266H8.79518V10.8678C8.79518 9.56219 9.04268 8.29969 10.6596 8.29969C12.2527 8.29969 12.2764 9.78969 12.2764 10.9516V15.8272H15.3796Z" fill="white"/>
<path d="M0.630795 5.81274H3.7408V15.8271H0.630795V5.81274Z" fill="white"/>
<path d="M2.18455 0.827148C1.19018 0.827148 0.383301 1.63402 0.383301 2.6284C0.383301 3.62277 1.19018 4.44652 2.18455 4.44652C3.17893 4.44652 3.9858 3.62277 3.9858 2.6284C3.98518 1.63402 3.1783 0.827148 2.18455 0.827148Z" fill="white"/>
</svg>
