<svg width="16" height="16" viewBox="0 0 16 16" fill="none" xmlns="http://www.w3.org/2000/svg">
<path d="M11.3229 0.827148H4.44366C2.20474 0.827148 0.383301 2.64859 0.383301 4.8875V11.7669C0.383301 14.0057 2.20474 15.8271 4.44366 15.8271H11.323C13.5618 15.8271 15.3833 14.0057 15.3833 11.7669V4.8875C15.3833 2.64859 13.5618 0.827148 11.3229 0.827148ZM7.88329 12.4286C5.62171 12.4286 3.78185 10.5887 3.78185 8.32713C3.78185 6.06556 5.62171 4.22569 7.88329 4.22569C10.1449 4.22569 11.9847 6.06556 11.9847 8.32713C11.9847 10.5887 10.1449 12.4286 7.88329 12.4286ZM12.0828 5.19295C11.4145 5.19295 10.8709 4.64935 10.8709 3.98102C10.8709 3.31269 11.4145 2.76898 12.0828 2.76898C12.7511 2.76898 13.2948 3.31269 13.2948 3.98102C13.2948 4.64935 12.7511 5.19295 12.0828 5.19295Z" fill="white"/>
<path d="M7.88329 5.10506C6.10671 5.10506 4.66121 6.55044 4.66121 8.32713C4.66121 10.1037 6.10671 11.5492 7.88329 11.5492C9.65998 11.5492 11.1054 10.1037 11.1054 8.32713C11.1054 6.55044 9.65998 5.10506 7.88329 5.10506Z" fill="white"/>
<path d="M12.0828 3.64846C11.8995 3.64846 11.7502 3.79769 11.7502 3.98102C11.7502 4.16435 11.8995 4.31358 12.0828 4.31358C12.2663 4.31358 12.4155 4.16447 12.4155 3.98102C12.4155 3.79757 12.2663 3.64846 12.0828 3.64846Z" fill="white"/>
</svg>
