<svg width="16" height="13" viewBox="0 0 16 13" fill="none" xmlns="http://www.w3.org/2000/svg">
<path d="M15.3833 1.67621C14.8255 1.9209 14.2311 2.08309 13.6114 2.16184C14.2489 1.78121 14.7355 1.18309 14.9642 0.462148C14.3699 0.816523 13.7136 1.06684 13.0142 1.20652C12.4499 0.605586 11.6455 0.233398 10.768 0.233398C9.06549 0.233398 7.69486 1.61527 7.69486 3.30934C7.69486 3.55309 7.71549 3.78746 7.76611 4.01059C5.20955 3.8859 2.94736 2.66059 1.42768 0.794024C1.16236 1.25434 1.00674 1.78121 1.00674 2.3484C1.00674 3.4134 1.55518 4.35746 2.37268 4.90402C1.87861 4.89465 1.39393 4.75121 0.983301 4.52527C0.983301 4.53465 0.983301 4.54684 0.983301 4.55902C0.983301 6.0534 2.04924 7.29465 3.44705 7.58059C3.19674 7.64902 2.92393 7.68184 2.6408 7.68184C2.44393 7.68184 2.24518 7.67059 2.05861 7.62934C2.45705 8.84715 3.58768 9.74246 4.93205 9.77152C3.8858 10.59 2.55736 11.0831 1.11924 11.0831C0.867051 11.0831 0.625176 11.0718 0.383301 11.0409C1.74549 11.9193 3.35986 12.4209 5.1008 12.4209C10.7596 12.4209 13.8533 7.7334 13.8533 3.67027C13.8533 3.53434 13.8486 3.40309 13.8421 3.27277C14.4524 2.83965 14.9652 2.29871 15.3833 1.67621Z" fill="white"/>
</svg>
