<svg width="16" height="11" viewBox="0 0 16 11" fill="none" xmlns="http://www.w3.org/2000/svg">
<path d="M15.0742 2.0838C14.9014 1.44119 14.3947 0.934632 13.7522 0.761597C12.5784 0.44043 7.88313 0.44043 7.88313 0.44043C7.88313 0.44043 3.18802 0.44043 2.01422 0.749421C1.38407 0.922273 0.865052 1.44129 0.6922 2.0838C0.383301 3.25751 0.383301 5.69163 0.383301 5.69163C0.383301 5.69163 0.383301 8.13802 0.6922 9.29946C0.865235 9.94197 1.37171 10.4485 2.01432 10.6216C3.20038 10.9428 7.88332 10.9428 7.88332 10.9428C7.88332 10.9428 12.5784 10.9428 13.7522 10.6338C14.3948 10.4609 14.9014 9.95433 15.0744 9.31182C15.3832 8.13802 15.3832 5.70399 15.3832 5.70399C15.3832 5.70399 15.3956 3.25751 15.0742 2.0838ZM6.38826 7.94035V3.44291L10.2926 5.69163L6.38826 7.94035Z" fill="white"/>
</svg>
